<svg xmlns="http://www.w3.org/2000/svg" width="900" height="210" viewBox="0 0 900 210" role="img" aria-label="Weekly training minutes"><title>Weekly training minutes</title><rect x="0.5" y="0.5" width="899" height="209" rx="12" fill="#151B23" stroke="#3D444D"/><text x="26" y="34" font-family="-apple-system, BlinkMacSystemFont, Segoe UI, Helvetica, Arial, sans-serif" font-size="13" font-weight="700" letter-spacing="0.08em" fill="#9198A1">TRAINING LOG</text><text x="112.5" y="78" font-family="-apple-system, BlinkMacSystemFont, Segoe UI, Helvetica, Arial, sans-serif" font-size="26" font-weight="700" fill="#58A6FF" text-anchor="middle">39</text><text x="112.5" y="97" font-family="-apple-system, BlinkMacSystemFont, Segoe UI, Helvetica, Arial, sans-serif" font-size="11.5" fill="#9198A1" text-anchor="middle">Sessions, 12 months</text><text x="337.5" y="78" font-family="-apple-system, BlinkMacSystemFont, Segoe UI, Helvetica, Arial, sans-serif" font-size="26" font-weight="700" fill="#58A6FF" text-anchor="middle">6</text><text x="337.5" y="97" font-family="-apple-system, BlinkMacSystemFont, Segoe UI, Helvetica, Arial, sans-serif" font-size="11.5" fill="#9198A1" text-anchor="middle">Week streak</text><text x="562.5" y="78" font-family="-apple-system, BlinkMacSystemFont, Segoe UI, Helvetica, Arial, sans-serif" font-size="26" font-weight="700" fill="#E6EDF3" text-anchor="middle">54 min</text><text x="562.5" y="97" font-family="-apple-system, BlinkMacSystemFont, Segoe UI, Helvetica, Arial, sans-serif" font-size="11.5" fill="#9198A1" text-anchor="middle">Average session</text><text x="787.5" y="78" font-family="-apple-system, BlinkMacSystemFont, Segoe UI, Helvetica, Arial, sans-serif" font-size="26" font-weight="700" fill="#E6EDF3" text-anchor="middle">1,730</text><text x="787.5" y="97" font-family="-apple-system, BlinkMacSystemFont, Segoe UI, Helvetica, Arial, sans-serif" font-size="11.5" fill="#9198A1" text-anchor="middle">Minutes, 16 weeks</text><path d="M26,178 L26.0,178.0 82.53,165.29 139.07,145.45 195.6,116.0 252.13,139.56 308.67,132.43 365.2,131.19 421.73,127.47 478.27,178.0 534.8,162.19 591.33,133.98 647.87,119.41 704.4,119.1 760.93,129.95 817.47,155.68 874.0,178.0 L874,178 Z" fill="#58A6FF" opacity="0.18"/><polyline points="26.0,178.0 82.53,165.29 139.07,145.45 195.6,116.0 252.13,139.56 308.67,132.43 365.2,131.19 421.73,127.47 478.27,178.0 534.8,162.19 591.33,133.98 647.87,119.41 704.4,119.1 760.93,129.95 817.47,155.68 874.0,178.0" fill="none" stroke="#58A6FF" stroke-width="2" stroke-linejoin="round" stroke-linecap="round"/><circle cx="874.0" cy="178.0" r="3.5" fill="#58A6FF"/><text x="26" y="196" font-family="-apple-system, BlinkMacSystemFont, Segoe UI, Helvetica, Arial, sans-serif" font-size="10.5" fill="#9198A1">16 weeks ago</text><text x="874" y="196" font-family="-apple-system, BlinkMacSystemFont, Segoe UI, Helvetica, Arial, sans-serif" font-size="10.5" fill="#9198A1" text-anchor="end">this week</text></svg>